<?xml version="1.0" encoding="UTF-8"?>
<svg id="Layer_1" xmlns="http://www.w3.org/2000/svg" version="1.1" xmlns:xlink="http://www.w3.org/1999/xlink" viewBox="0 0 1366 768">
  <!-- Generator: Adobe Illustrator 29.0.0, SVG Export Plug-In . SVG Version: 2.1.0 Build 186)  -->
  <defs>
    <style>
      .st0 {
        fill: url(#linear-gradient2);
      }

      .st1 {
        fill: url(#linear-gradient1);
      }

      .st2 {
        fill: url(#linear-gradient8);
      }

      .st3 {
        fill: url(#linear-gradient7);
      }

      .st4 {
        fill: url(#linear-gradient4);
      }

      .st5 {
        fill: url(#linear-gradient5);
      }

      .st6 {
        fill: #e08172;
      }

      .st7 {
        fill: url(#linear-gradient3);
      }

      .st8 {
        fill: url(#linear-gradient6);
      }

      .st9 {
        fill: url(#linear-gradient);
      }
    </style>
    <linearGradient id="linear-gradient" x1="-36.11" y1="8.02" x2="56.14" y2="176.34" gradientTransform="translate(1067.15 696.05) rotate(-90) scale(.81 -1)" gradientUnits="userSpaceOnUse">
      <stop offset="0" stop-color="#f8c5a1"/>
      <stop offset=".73" stop-color="#f9ba9a"/>
      <stop offset="1" stop-color="#fab597"/>
    </linearGradient>
    <linearGradient id="linear-gradient1" x1="-102.94" y1="210.47" x2="34.22" y2="40.98" gradientTransform="translate(1067.15 696.05) rotate(-90) scale(.81 -1)" gradientUnits="userSpaceOnUse">
      <stop offset="0" stop-color="#f7b08a"/>
      <stop offset=".39" stop-color="#f1a582"/>
      <stop offset="1" stop-color="#e38c72"/>
    </linearGradient>
    <linearGradient id="linear-gradient2" x1="30.22" y1="-79.88" x2="228.4" y2="127.1" xlink:href="#linear-gradient"/>
    <linearGradient id="linear-gradient3" x1="31.3" y1="148.99" x2="150.18" y2="4.37" xlink:href="#linear-gradient1"/>
    <linearGradient id="linear-gradient4" x1="226.52" y1="-164.16" x2="312.9" y2="66.46" xlink:href="#linear-gradient"/>
    <linearGradient id="linear-gradient5" x1="134.51" y1="122.51" x2="296.35" y2="-34.14" xlink:href="#linear-gradient1"/>
    <linearGradient id="linear-gradient6" x1="220.02" y1="721.24" x2="410.92" y2="218.43" xlink:href="#linear-gradient"/>
    <linearGradient id="linear-gradient7" x1="38.48" y1="235.26" x2="709.25" y2="787.14" xlink:href="#linear-gradient1"/>
    <linearGradient id="linear-gradient8" x1="237.57" y1="41.62" x2="432.74" y2="-7.84" xlink:href="#linear-gradient1"/>
  </defs>
  <path class="st9" d="M1058.33,621.56c-50.04,6.02-99.69,9.98-152.7,2.38-52.89-7.44-64.56,22.81-82.7,54.18-18.28,31.36-29.43,47.05-29.43,47.05,17.5-2.06,33.45-2.85,48.61-2.85,52.24-.32,94.89,7.76,152.83-1.74,71.17-11.56,99.82-20.75,111.87-48.47.78-1.43,1.43-3.01,1.95-4.59,11.15-31.36-.39-52.12-50.43-45.94Z"/>
  <path class="st1" d="M923.26,697.76c-12.7-15.37-44.46,5.86-81.15,24.55,52.24-.32,94.89,7.76,152.83-1.74,71.17-11.56,99.82-20.75,111.87-48.47-41.09,29.94-91,24.39-102.28,10.61-13.35-16.32-57.68,43.88-81.28,15.05Z"/>
  <path class="st0" d="M879.57,525.89c-8.81,19.64-19.96,47.52-27.22,72.55-11.28,38.18-13.48,69.54,15.69,52.43,40.32-23.6,28.52-22.02,63.91-14.41,35.39,7.6,119.78-1.9,171.89-10.93,52.11-9.03,106.3-30.26,124.06-47.05,5.96-5.54,10.11-14.41,11.41-23.92,2.72-19.01-5.45-40.24-31.63-42.3-39.28-3.01-143.11,10.14-189.13,6.02-45.89-3.96-116.67-41.82-138.96,7.6Z"/>
  <path class="st7" d="M1007,604.61c-87.76,40.08-90.61-35.01-154.65-6.18-11.28,38.18-13.48,69.54,15.69,52.43,40.32-23.6,28.52-22.02,63.91-14.41,35.39,7.6,119.78-1.9,171.89-10.93,52.11-9.03,106.3-30.26,124.06-47.05,5.96-5.54,10.11-14.41,11.41-23.92-25.54,33.42-77.13,50.53-115.63,38.65-46.54-14.41-25.41,43.24-116.67,11.41Z"/>
  <path class="st4" d="M944.13,395.52c-51.33,3.64-79.33,28.04-82.32,56.08-2.72,23.44,12.32,49.42,45.89,67.32,53.41-7.6,55.48,23.76,134.43,15.05,79.08-8.55,152.71,1.27,214.8-16.32,46.54-13.15,54.06-45.94,50.3-67.01-1.17-6.97-3.63-12.83-6.22-16-10.76-13.15-21.39-23.44-144.67-23.44s-117.45-22.34-212.21-15.68Z"/>
  <path class="st5" d="M861.81,451.59c-2.72,23.44,12.32,49.42,45.89,67.32,53.41-7.6,55.48,23.76,134.43,15.05,79.08-8.55,152.71,1.27,214.8-16.32,46.54-13.15,54.06-45.94,50.3-67.01-8.17,32.63-48.09,67.48-116.54,44.67-27.35,23.6-86.2,29.62-118.48,5.39-32.28-24.24-91.91,50.69-157.63-22.02-26.06-28.83-42.52-32.79-52.76-27.09Z"/>
  <path class="st8" d="M774.96,46.71c-25.28,2.06-52.24,20.91-52.24,20.91,0,0-79.98-14.41-174.35,40.24-65.72,50.06-170.98,194.05-170.98,194.05,0,0-9.59-1.11-25.8-3.48-48.61-6.97-156.72-25.98-238.26-63.2-35.26,34.22-68.7,130.05-64.56,244.1,1.68,48.15,10.11,99.64,28,150.96,112.26-15.05,187.45-20.43,303.46,16.79,38.5,31.84,120.95,77.3,169.43,93.3,48.35,15.84,139.61,3.64,226.46-6.18,4.15-.48,8.04-.95,11.67-1.58,72.46-10.46,46.54-32.32,78.94-71.92,34.09-41.66,19.83-73.66,40.32-117.54,20.48-44.04,28-100.59,11.02-132.43,56.26,22.65,124.44,11.56,153.48,20.12,112.13,27.4,203.13,27.4,201.45-34.37v-.16c-1.94-61.46-146.09-76.19-146.09-76.19,0,0-17.37-11.56-79.72-18.22-24.11-5.54-117.19-35.32-197.82-35.32s-142.33-47.52-142.33-47.52c0,0,25.67-3.01,50.04-25.19,45.5-11.72,104.35-45.15,127.43-97.58,3.5-8.08,6.35-15.84,8.56-23.29.13-.48.26-.79.26-1.27,11.41-40.87,2.33-71.12-19.57-68.59-26.06,3.01-73.63,41.5-98.78,43.56Z"/>
  <path class="st3" d="M774.96,46.71c-25.28,2.06-52.24,20.91-52.24,20.91,0,0-79.98-14.41-174.35,40.24-65.72,50.06-170.98,194.05-170.98,194.05,0,0-9.59-1.11-25.8-3.48-20.22,39.92-54.83,116.27-46.41,156.03,11.8,55.28,16.07,93.93-104.35,82.69-68.57-6.49-120.3-34.69-152.06-57.82,1.68,48.15,10.11,99.64,28,150.96,112.26-15.05,187.45-20.43,303.46,16.79,38.5,31.84,120.95,77.3,169.43,93.3,48.35,15.84,139.61,3.64,226.46-6.18,4.15-.48,8.04-.95,11.67-1.58-52.5-6.34-135.08-25.19-166.19-81.74-70.13,39.44-173.19-27.4-189.91-108.51-16.72-81.1,4.41-37.86,80.11-116.75,75.7-78.89,52.76-176.78,70.65-245.05,18.02-68.27,46.67-46.1,72.72-14.26,26.06,31.84,43.94,3.8,68.83-17.9,24.76-21.7,21.78-13.94,46.54-1.11,24.89,12.83,63.26-91.72,93.72-112.94,23.59-16.48,34.48,1.9,29.04,37.38,11.41-40.87,2.33-71.12-19.57-68.59-26.06,3.01-73.63,41.5-98.78,43.56Z"/>
  <path class="st2" d="M863.89,323.29c36.81,25.19,54.19,87.44,54.19,87.44,56.26,22.65,124.44,11.56,153.48,20.12,112.13,27.4,203.13,27.4,201.45-34.37v-.16c-38.5,43.09-111.74,37.07-124.96,20.91-14-17.11-70.65,13.62-96.32-41.66-25.67-55.44-37.72,67.48-118.74-8.4-35.65-43.4-56.78-47.05-69.09-43.88Z"/>
  <path class="st6" d="M702.91,220.08c-4.35-1.07-8.88-1.49-13.34-.93-4.53.53-8.89,1.36-13.44,3.71-.44.22-.79.59-1.04,1.04l-.17.31c-4.34,7.8-8.64,15.7-12.73,23.69l-6.15,11.98c-2.24,3.81-3.94,8.15-7.1,11,4.02-1.1,7.13-4.87,9.96-8.12,2.77-3.49,5.58-6.96,7.97-10.79,4.95-7.53,9.22-15.55,13.18-23.89l-1.21,1.35c3.38-2.06,7.48-4.02,11.48-5.51,4.09-1.36,8.26-2.74,12.61-3.84Z"/>
  <path class="st6" d="M368.22,440.5c-.52-11.32-1.48-22.34-1.49-33.43-.14-11.06-.03-22.09.64-33.09,1.04-22.04,3.73-43.86,7.47-65.93-4.43,9.98-7.35,20.82-9.65,31.8-2.37,10.99-3.67,22.29-4.29,33.63-1.17,22.65.95,45.79,7.32,67.02Z"/>
  <path class="st6" d="M404.62,657.89c-4.4-15.95-9.6-30.99-13.2-46.49-1.89-7.71-3.21-15.5-4.09-23.45-1.15-7.76.11-16.63-2.99-24.6.33,4.21-.29,8.11-.96,12.23-.52,4.1-.89,8.36-1.04,12.64-.28,8.61.98,17.18,2.84,25.38,1.93,8.21,4.71,15.98,7.96,23.4,3.32,7.37,7.03,14.43,11.46,20.9Z"/>
  <path class="st6" d="M1041.94,311.08c-1.39,8.37-3.66,16.07-6.48,23.51-2.95,7.31-6.11,14.69-9.72,21.28l5.82,3.05c1.49-8.66,2.76-17.32,3.45-26.14.65-8.79,1.34-17.73.16-26.63-1.58,8.66-3.46,17.06-5.15,25.57-1.79,8.47-3.27,17.03-4.78,25.54l-.02.13c-.37,2.12.73,4.2,2.46,4.66,1.35.35,2.68-.39,3.38-1.73,3.89-7.5,6.96-15.23,8.97-23.61,2.03-8.27,3.15-17.14,1.91-25.63Z"/>
  <path class="st6" d="M1147.24,402.84c3.43-11.87,3.78-24.57,2.91-36.84-1.12-12.26-3.35-24.46-8.18-35.58-.12,12.53.86,24.41,1.73,36.36l1.62,17.88c.62,5.98,1.02,11.97,1.93,18.19Z"/>
  <path class="st6" d="M1189.75,517.72c2.02-4.9,3.28-10.05,4.21-15.3,1.03-5.23,1.33-10.6,1.5-15.96-.04-5.36-.26-10.76-1.22-16.04-.92-5.27-2.11-10.54-4.48-15.27-.48,10.85-.63,20.91-.77,31.21-.01,10.28-.23,20.49.77,31.35Z"/>
  <path class="st6" d="M1054.16,521.13c3.63-11.83,5.89-23.62,7.8-35.67.82-6.05,1.64-12.11,1.9-18.32.29-6.16.53-12.53-.7-18.77-2.96,11.95-5.8,23.54-7.58,35.69-1.65,12.1-2.81,24.51-1.42,37.07Z"/>
  <path class="st6" d="M1119.32,613.27c.11-10.75,0-20.62-.15-30.85-.33-10.18-.62-20.35-2.33-30.95-3.35,10.04-4.25,20.63-4.14,31.18.39,10.45,1.82,21.42,6.63,30.63Z"/>
  <path class="st6" d="M1009.79,620.47c1.98-4.96,3.25-10.08,4.34-15.25,1.16-5.16,1.77-10.43,2.29-15.72.37-5.3.63-10.64.27-16.02-.33-5.34-.79-10.81-2.56-15.95-1.87,10.63-3.26,20.75-4.16,31.18-.72,10.41-1.34,20.86-.18,31.76Z"/>
  <path class="st6" d="M1002.65,710.34c4.36-7.16,6.5-15.44,7.79-23.75,1.07-8.36,1.38-16.96-.66-25.55-3.02,8.09-4.46,16.09-5.72,24.19-.49,4.08-1.07,8.12-1.24,12.29-.22,4.17-.51,8.32-.17,12.8Z"/>
  <path class="st6" d="M925.39,713.37c2.53-8.32,3.34-16.46,3.96-24.64.42-8.22.52-16.3-.55-25.03-2.06,3.73-3.19,7.83-4.15,11.93-1.02,4.1-1.43,8.31-1.76,12.51-.18,4.21-.27,8.43.2,12.65.4,4.22.98,8.42,2.3,12.58Z"/>
  <path class="st6" d="M547.36,539.93c23.42,4.7,47.77,1.96,70.78-5.86,23.1-7.78,44.76-21.03,64.74-36.99,19.7-16.53,37.82-35.9,53.34-58.02,15.47-22.12,28.72-46.7,37.86-73.42-11.55,25.23-25.6,48.44-41.58,69.36-15.99,20.88-33.69,39.85-53.22,55.51-38.45,32.05-84.46,52.2-131.92,49.42Z"/>
  <path class="st6" d="M757.94,672.09c-.54-52.08,1-103.91,7.14-155.18,2.58-25.7,6.47-51.17,11.03-76.46,4.66-25.26,9.92-50.42,17.4-74.81-9.97,23.13-16.53,48.2-22.24,73.35-5.6,25.24-9.48,50.99-12.6,76.85-2.57,25.95-4.49,52.03-4.65,78.16-.09,26.13,1.03,52.25,3.92,78.08Z"/>
</svg>