<?xml version="1.0" encoding="UTF-8"?>
<svg xmlns="http://www.w3.org/2000/svg" version="1.1" xmlns:xlink="http://www.w3.org/1999/xlink" viewBox="0 0 2000 1487">
  <!-- Generator: Adobe Illustrator 29.0.0, SVG Export Plug-In . SVG Version: 2.1.0 Build 186)  -->
  <defs>
    <style>
      .st0 {
        fill: url(#linear-gradient2);
      }

      .st1 {
        fill: url(#linear-gradient10);
      }

      .st2 {
        fill: url(#linear-gradient1);
      }

      .st3 {
        fill: url(#linear-gradient9);
      }

      .st4 {
        fill: url(#linear-gradient8);
      }

      .st5 {
        fill: url(#linear-gradient11);
      }

      .st6 {
        isolation: isolate;
      }

      .st7 {
        fill: url(#linear-gradient12);
      }

      .st8 {
        fill: url(#linear-gradient7);
      }

      .st9 {
        fill: url(#linear-gradient4);
      }

      .st10 {
        fill: url(#linear-gradient14);
      }

      .st11 {
        fill: url(#linear-gradient5);
      }

      .st12 {
        fill: #e08172;
      }

      .st13 {
        fill: url(#linear-gradient3);
      }

      .st14 {
        fill: url(#linear-gradient15);
      }

      .st15 {
        fill: url(#linear-gradient6);
      }

      .st16 {
        fill: url(#linear-gradient13);
      }

      .st17 {
        fill: #f8917f;
        mix-blend-mode: screen;
        opacity: .68;
      }

      .st18 {
        fill: url(#linear-gradient);
      }
    </style>
    <linearGradient id="linear-gradient" x1="517.59" y1="696.64" x2="-162.76" y2="638.07" gradientTransform="translate(1130.44 150.25) rotate(-164.87) scale(1 -1)" gradientUnits="userSpaceOnUse">
      <stop offset="0" stop-color="#f8c5a1"/>
      <stop offset=".73" stop-color="#f9ba9a"/>
      <stop offset="1" stop-color="#fab597"/>
    </linearGradient>
    <linearGradient id="linear-gradient1" x1="-645.63" y1="680.64" x2="834.06" y2="680.64" gradientTransform="translate(1130.44 150.25) rotate(-164.87) scale(1 -1)" gradientUnits="userSpaceOnUse">
      <stop offset="0" stop-color="#f7b08a"/>
      <stop offset=".39" stop-color="#f1a582"/>
      <stop offset="1" stop-color="#e38c72"/>
    </linearGradient>
    <linearGradient id="linear-gradient2" x1="-52.54" y1="449.93" x2="894.11" y2="449.93" xlink:href="#linear-gradient1"/>
    <linearGradient id="linear-gradient3" x1="-767.68" y1="274.71" x2="-659.55" y2="219.52" xlink:href="#linear-gradient"/>
    <linearGradient id="linear-gradient4" x1="-835.53" y1="68.56" x2="-627.52" y2="198.47" xlink:href="#linear-gradient1"/>
    <linearGradient id="linear-gradient5" x1="-627.75" y1="547.12" x2="-669.43" y2="401.82" xlink:href="#linear-gradient"/>
    <linearGradient id="linear-gradient6" x1="-857.25" y1="482.79" x2="-417.69" y2="482.79" xlink:href="#linear-gradient1"/>
    <linearGradient id="linear-gradient7" x1="-538.22" y1="718.32" x2="-594.54" y2="643.98" xlink:href="#linear-gradient"/>
    <linearGradient id="linear-gradient8" x1="-824.81" y1="690.18" x2="-317.35" y2="690.18" xlink:href="#linear-gradient1"/>
    <linearGradient id="linear-gradient9" x1="-486.96" y1="973.35" x2="-581.58" y2="834.8" xlink:href="#linear-gradient"/>
    <linearGradient id="linear-gradient10" x1="-683.06" y1="232.64" x2="26.52" y2="232.64" xlink:href="#linear-gradient"/>
    <linearGradient id="linear-gradient11" x1="-448.41" y1="533.87" x2="-514.5" y2="359.65" xlink:href="#linear-gradient1"/>
    <linearGradient id="linear-gradient12" x1="-532.31" y1="309.23" x2="-227.6" y2="309.23" xlink:href="#linear-gradient1"/>
    <linearGradient id="linear-gradient13" x1="-683.06" y1="99.93" x2="26.52" y2="99.93" xlink:href="#linear-gradient1"/>
    <linearGradient id="linear-gradient14" x1="-771.61" y1="904.82" x2="-337.95" y2="904.82" xlink:href="#linear-gradient1"/>
    <linearGradient id="linear-gradient15" x1="-758.31" y1="-11.82" x2="-639.66" y2="67.03" gradientTransform="translate(1130.44 150.25) rotate(-164.87) scale(1 -1)" gradientUnits="userSpaceOnUse">
      <stop offset="0" stop-color="#f59f77"/>
      <stop offset=".38" stop-color="#ed9470"/>
      <stop offset="1" stop-color="#db7960"/>
    </linearGradient>
  </defs>
  <g class="st6">
    <g id="Layer_1">
      <g>
        <path class="st18" d="M54.57,711.35c-21.85,104.26-21.57,191.6-10.7,262.3,24.38,161.37,103.66,236.9,103.66,236.9,0,0,386.94-27.51,632.59-32.77,318.01,199.55,599.73,176.25,599.73,176.25,0,0,63.31-9.7,112.29-70.07,136.33-448.44-8.26-864.83-101.22-943.83-31.34-26.51-68.95-47.89-107.62-64.43-41.66-18.09-84.47-30.15-122.36-36.97-31.63-5.62-59.68-7.36-80.43-5.41-68.62,6.8-235.42,73.83-298.8,203.68,0,0-248.59,54.92-646.04,28.4-40.37,90.73-66.19,172.71-81.11,245.95Z"/>
        <path class="st2" d="M43.87,973.65c24.38,161.37,103.66,236.9,103.66,236.9,0,0,386.94-27.51,632.59-32.77,318.01,199.55,599.73,176.25,599.73,176.25,0,0,63.31-9.7,112.29-70.07,136.33-448.44-8.26-864.83-101.22-943.83-31.34-26.51-68.95-47.89-107.62-64.43,67.46,84.81,47.73,161.58,55.18,198.94,8.1,39.48-79.89,80.04-44.96,205.99-61.26,96.78-148.63,198.2-392.22,175.99,69.15,43.55,171.92,62.8,329.38,4.21-28.28,58.65-38.77,87.51,7.19,150.14-16.74,9.61-119.28,131.07-28.44,226.06-15.17,17.35-128.27,12.86-186.94-50.53-80.16,16.11-267.3-59.82-285.33-222.15-208.02,154.61-497.4,196.3-693.27,9.3Z"/>
        <path class="st0" d="M54.57,711.35c193.3-295.81,684.12-206.28,684.12-206.28,0,0-51.79,103.24,1.74,196.44-9.14-116.78,100.28-383.6,345.74-363.8,17.26-34.09,51.63-73.79,74.77-98.98-31.63-5.62-59.68-7.36-80.43-5.41-68.62,6.8-235.42,73.83-298.8,203.68,0,0-248.59,54.92-646.04,28.4-40.37,90.73-66.19,172.71-81.11,245.95Z"/>
        <path class="st13" d="M1462.3,539.56c12.91,59.55,94.46,129.37,273.74,144.19,56.76,4.62,96.57-5.58,124.56-21.66,60.7-34.29,65.99-96.23,65.99-96.23,0,0-21.1-94.18-89.45-170.43-12.12-13.76-25.69-26.69-40.76-38.56-65.19-17.62-132.94-26.67-280.9-14.02,0,0-66.37,137.32-53.17,196.71Z"/>
        <path class="st9" d="M1462.3,539.56c12.91,59.55,94.46,129.37,273.74,144.19,56.76,4.62,96.57-5.58,124.56-21.66-90.1-37.27-42.72-76.38-65.48-128.36-23.9-54.96-21.46-99.15,18.68-108.78,16.91-3.96,22.46-16.35,23.34-29.52-12.12-13.76-25.69-26.69-40.76-38.56-65.19-17.62-132.94-26.67-280.9-14.02,0,0-66.37,137.32-53.17,196.71Z"/>
        <path class="st11" d="M1396.28,832.49c10.89,42.67,116.15,102.33,239.1,108.26,9.41.35,18.66.41,27.57-.1,105.92-5.01,166.59-68.06,166.59-68.06,0,0,22.62-54.82,23.44-110.17.18-12.38-.61-24.78-3.24-36.71-25.46-44.66-64.73-62.59-64.73-62.59,0,0-155.82-42.12-254.86-23.8-133.4,24.63-145.05,150.67-133.87,193.17Z"/>
        <path class="st15" d="M1396.28,832.49c10.89,42.67,116.15,102.33,239.1,108.26,9.41.35,18.66.41,27.57-.1-73.91-51.18-95.7-121.17-89.62-170.71,7.28-58.48,82.72-60.75,160.1-65.67,69.6-4.1,67.73-10.7,119.56,58.15.18-12.38-.61-24.78-3.24-36.71-25.46-44.66-64.73-62.59-64.73-62.59,0,0-155.82-42.12-254.86-23.8-133.4,24.63-145.05,150.67-133.87,193.17Z"/>
        <path class="st8" d="M1255.06,911.31c12.04,84.42,45.89,125.99,93.19,153.89,36.18,21.24,80.23,34.12,128.29,51.98,76.69,28.29,138.84,22.9,191.1-.02,22.91-9.9,44.05-23.19,63.52-38.4,13.35-26.86,28.06-103.81,28.06-103.81,0,0-51.32-83.34-105.91-103.21-268.4-98.14-356.76-61.58-356.76-61.58,0,0-33.35,43.14-41.48,101.15Z"/>
        <path class="st4" d="M1255.06,911.31c12.04,84.42,45.89,125.99,93.19,153.89-12.18-37.9-24.8-84.63-17.73-127.39,8.09-48.87,43.81-55.11,126.12-62.48,76-6.8,149.86,22.96,202.34,71.61,39.6,36.72,77.25,68.85,8.65,170.22,22.91-9.9,44.05-23.19,63.52-38.4,13.35-26.86,28.06-103.81,28.06-103.81,0,0-51.32-83.34-105.91-103.21-268.4-98.14-356.76-61.58-356.76-61.58,0,0-33.35,43.14-41.48,101.15Z"/>
        <path class="st3" d="M1236.31,1053.7c-12.16,44.97-9.4,104.22-9.4,104.22,0,0-3.68,13.63,49.62,77.03,22.59,15.61,54.16,30.48,88.69,42.5,55.39,19.6,117.83,32.09,160.02,28.39,26.95-9.53,49.86-25.76,68.11-42.77,35.38-32.6,54.22-68.95,54.22-68.95,0,0-31.29-65.49-60.43-93.85-105.04-55.94-275.16-84.86-275.16-84.86,0,0-29.95,5.31-75.67,38.29Z"/>
        <path class="st1" d="M1080.51,233.32s20.11,20.3,52.4,38.78c35.75,20.14,86.43,38.23,141.44,24.1,2.62,27.28,17.35,51.24,33.55,69.76,21.62,24.61,45.82,39.68,45.82,39.68,0,0-7.19,50.95,29.93,85.85-74.61,96.58-47.1,228.33-21.1,287.27,16.03,36.26,48.54,55.78,80,52.09,9.26-.91,18.4-4.04,27.12-9.24,9.65-5.92,18.77-14.43,26.52-25.98,18.68-27.61,45.27-69.17,79.3-112.13,18.54-23.5,39.37-47.37,62.39-69.42-.17-.29-.1-.52.12-.45,21.17-20.6,43.91-39.81,68.47-55.83,33.27-26.59,37.34-60.59,37.34-60.59,0,0-89.01-268.53-356.61-396.69-175.93.7-306.7,132.81-306.7,132.81Z"/>
        <path class="st5" d="M1469.66,821.61c9.65-5.92,18.77-14.43,26.52-25.98,17.85-26.37,43.15-65.85,75.21-106.9,1.17-1.63,2.63-3.43,4.09-5.23-39.03-21.52-65.67-55.53-77.61-72.65-4.78-6.65-7.04-10.92-7.04-10.92,0,0-68.76,56-90.76,111.23-20.03,50.65-3.15,102.74,69.59,110.46Z"/>
        <path class="st7" d="M1307.9,365.96c21.62,24.61,45.82,39.68,45.82,39.68,0,0-7.19,50.95,29.93,85.85-74.61,96.58-47.1,228.33-21.1,287.27,16.03,36.26,48.54,55.78,80,52.09-60.74-20.56-94.82-80.23-90.37-158,4.85-81.07,55.78-231.59,230.29-154.92-39.86-22.96-82.95-95.3,19.68-113.38-48.67,7.81-241.13,7.45-241.05-152.42-13.81,51.11-30.01,116.44-53.2,113.83Z"/>
        <path class="st16" d="M1080.51,233.32s20.11,20.3,52.4,38.78c33.04-35.67,103.37-83.93,179.44-110.17,89.93-10.79,148.73,27.77,230.09,95.59,81.13,67.75,154.89,178.12,159.71,236.94,4.21,54.76-7.39,28.23-64.14,119.16,21.17-20.6,43.91-39.81,68.47-55.83,33.27-26.59,37.34-60.59,37.34-60.59,0,0-89.01-268.53-356.61-396.69-175.93.7-306.7,132.81-306.7,132.81Z"/>
        <path class="st10" d="M1236.31,1053.7c-12.16,44.97-9.4,104.22-9.4,104.22,0,0-3.68,13.63,49.62,77.03,22.59,15.61,54.16,30.48,88.69,42.5-22.18-34.27-51.74-85.4-56.36-121.51-7.5-58.82,26.79-75.56,81.12-72.85,51.26,2.55,113.6,22.45,156.94,49.02,37.57,23.04,70.55,48.99,46.44,130.96,35.38-32.6,54.22-68.95,54.22-68.95,0,0-31.29-65.49-60.43-93.85-105.04-55.94-275.16-84.86-275.16-84.86,0,0-29.95,5.31-75.67,38.29Z"/>
        <path class="st14" d="M1704.87,411.66c-6.05-11.2-12.8-23.11-20.44-35.65,24.33-.21,45.27-13.02,45.27-13.02,0,0-10.62,7.63-26.48,20.26,26.82,7.25,79.15,2.14,79.15,2.14,0,0-58.96,9.35-77.51,26.26Z"/>
        <path class="st12" d="M1351.91,386.5c5.6-13.76,7.68-27.41,8.94-41.16.81-13.79.76-27.58-2.8-41.97-5.6,13.32-7.69,27.24-8.93,41.16-.8,13.96-.76,28.02,2.8,41.97Z"/>
        <path class="st12" d="M1512.37,438.24c-10.81-4.88-22.8-8.25-35.11-8.08-12.31-.48-24.72,2.21-36.08,6.99-11.33,4.88-21.87,11.52-30.62,19.99-8.76,8.39-16.47,17.9-21.38,28.9,17.57-16,35.91-29.55,56.53-38.04,10.15-4.58,20.98-7.24,32.07-8.85,11.17-1.98,22.56-1.09,34.58-.91Z"/>
        <path class="st12" d="M1794.42,729.37l-5.17,34.74c-1.9,11.41-3.57,22.79-5.83,34.08-3.98,22.72-9.05,45.09-13.65,68.42,6.79-9.88,11.63-20.81,15.8-31.93,4.3-11.1,7.16-22.68,9.42-34.36,4.19-23.36,4.87-47.71-.57-70.95Z"/>
        <path class="st12" d="M1677.83,959.23c-5.52,20.31-11.86,39.04-19.04,58.07-6.97,19.05-14.58,37.81-20.87,57.93,7.32-7.69,13.09-16.46,18.42-25.47,5.41-8.99,9.67-18.58,13.48-28.37,3.46-9.92,6.5-20.05,7.97-30.55,1.45-10.47,2-21.19.05-31.62Z"/>
        <path class="st12" d="M1322.4,826.59c-13.75,18.11-21.68,39.97-26.47,61.91-2.16,11.07-3.85,22.23-4.15,33.51-.39,11.24-.22,22.55,1.93,33.73,5.3-21.99,9.1-43.45,13.73-64.83,2.01-10.75,4.74-21.28,6.98-32.02,2.39-10.72,5.47-21.21,7.97-32.31Z"/>
        <path class="st12" d="M1578.3,1146.15c-.38,11.25-1.44,21.71-3.88,31.97-2.89,10.14-6.15,20.05-10.43,29.71-8.48,19.39-19.36,37.72-30.6,56.97,9.26-6.4,16.93-14.64,23.91-23.39,7.04-8.75,12.77-18.54,17.46-28.87,4.33-10.48,7.64-21.56,8.55-33,.76-11.45-.61-23.06-5.02-33.38Z"/>
        <path class="st12" d="M1290.13,1053.18c-8.26,7.67-14.58,17.56-18.81,28.27-4.2,10.73-6.21,22.19-6.96,33.59-.32,11.41.38,22.82,2.86,33.87,2.39,11.03,5.66,21.89,11.2,31.79-1.72-22.38-3.29-43.78-2.31-65.09.43-10.64,1.96-21.06,3.84-31.54,2.21-10.43,5.9-20.4,10.19-30.89Z"/>
        <path class="st12" d="M766.31,1154.29c-9.59-17.88-17.94-35.78-22.48-54.98-4.24-19.16-6.87-38.6-6.87-58.28,0-39.37,6.74-78.66,17.09-117.68-9.82,17.78-16.39,37.17-21.35,56.93-5,19.79-7.33,40.27-7.5,60.83.28,20.57,3.38,41.23,9.99,60.77,6.59,19.6,17.6,37.42,31.11,52.41Z"/>
        <path class="st12" d="M771.66,446.68c-30.74,30.43-50.36,71.92-58.02,114.94-7.39,42.95-2.23,89.53,20.02,126.84-13.56-40.91-15.69-83.59-8.44-124.84,7.05-41.33,23.03-80.85,46.43-116.93Z"/>
        <path class="st12" d="M1262.1,846.07c-26.92,15.88-56.91,24.44-86.96,31.17-30.18,6.41-60.82,10.83-91.61,11.99-30.73,2.03-61.62.86-92.07-3.34-30.4-4.28-60.56-12.29-88.25-26.87,25.21,18.84,55.86,29.55,86.7,35.78,31.02,6.2,62.78,7.31,94.24,6.16,31.43-2.17,62.78-6.52,93.14-14.97,30.08-8.62,60.48-19.89,84.8-39.92Z"/>
        <path class="st17" d="M1497.87,610.85c1.01,27.82,12.49,75.52,73.52,77.88,1.17-1.63,2.63-3.43,4.09-5.23-39.03-21.52-65.67-55.53-77.61-72.65Z"/>
      </g>
    </g>
  </g>
</svg>