<?xml version="1.0" encoding="UTF-8"?>
<svg id="Layer_1" data-name="Layer 1" xmlns="http://www.w3.org/2000/svg" xmlns:xlink="http://www.w3.org/1999/xlink" viewBox="0 0 1949.26 1201.08">
  <defs>
    <style>
      .cls-1 {
        fill: url(#linear-gradient-2);
      }

      .cls-2 {
        fill: url(#linear-gradient-10);
      }

      .cls-3 {
        fill: url(#linear-gradient-4);
      }

      .cls-4 {
        fill: url(#linear-gradient-3);
      }

      .cls-5 {
        fill: url(#linear-gradient-5);
      }

      .cls-6 {
        fill: url(#linear-gradient-8);
      }

      .cls-7 {
        fill: url(#linear-gradient-7);
      }

      .cls-8 {
        fill: url(#linear-gradient-9);
      }

      .cls-9 {
        fill: #e08172;
      }

      .cls-10 {
        fill: url(#linear-gradient-11);
      }

      .cls-11 {
        fill: url(#linear-gradient-6);
      }

      .cls-12 {
        fill: url(#linear-gradient);
      }
    </style>
    <linearGradient id="linear-gradient" x1="1245.55" y1="1426.04" x2="822.24" y2="1259.22" gradientTransform="translate(-591.33 614.73) rotate(-50.01)" gradientUnits="userSpaceOnUse">
      <stop offset="0" stop-color="#f8c5a1"/>
      <stop offset=".73" stop-color="#f9ba9a"/>
      <stop offset="1" stop-color="#fab597"/>
    </linearGradient>
    <linearGradient id="linear-gradient-2" x1="1179.29" y1="1306.82" x2="1649.29" y2="1306.82" gradientTransform="translate(-591.33 614.73) rotate(-50.01)" gradientUnits="userSpaceOnUse">
      <stop offset="0" stop-color="#f7b08a"/>
      <stop offset=".39" stop-color="#f1a582"/>
      <stop offset="1" stop-color="#e38c72"/>
    </linearGradient>
    <linearGradient id="linear-gradient-3" x1="571.16" y1="1662.42" x2="1345.25" y2="1662.42" xlink:href="#linear-gradient-2"/>
    <linearGradient id="linear-gradient-4" x1="555.97" y1="1500.91" x2="589.33" y2="1436.96" xlink:href="#linear-gradient"/>
    <linearGradient id="linear-gradient-5" x1="489.1" y1="752.55" x2="1188.44" y2="752.55" xlink:href="#linear-gradient-2"/>
    <linearGradient id="linear-gradient-6" x1="178.58" y1="797.47" x2="714.3" y2="797.47" xlink:href="#linear-gradient-2"/>
    <linearGradient id="linear-gradient-7" x1="448.69" y1="1438.19" x2="739.56" y2="1438.19" xlink:href="#linear-gradient-2"/>
    <linearGradient id="linear-gradient-8" x1="715.18" y1="1323.76" x2="612.3" y2="1257.03" xlink:href="#linear-gradient"/>
    <linearGradient id="linear-gradient-9" x1="493.54" y1="1288.24" x2="846.93" y2="1288.24" xlink:href="#linear-gradient-2"/>
    <linearGradient id="linear-gradient-10" x1="843.17" y1="1374.63" x2="799.38" y2="1371.16" xlink:href="#linear-gradient-2"/>
    <linearGradient id="linear-gradient-11" x1="964.8" y1="1285.84" x2="1031.53" y2="1559.71" xlink:href="#linear-gradient-2"/>
  </defs>
  <path class="cls-12" d="M1895.44,547.76c14.64,36.44,26.05,71.3,34.25,104.9,32.22,129.35,20.4,235.98-4.84,316.57-36.42,116.98-100.93,179.99-100.93,179.99,0,0-258.27-75.04-396.34-62.93-100.39,62.76-291.58,109.07-426.52,89.99-134.96-19.39-18.02-87.31-108.7-185.25-23.21-24.86-45.2-44.73-65.93-60.69-60.48-46.17-109.69-59.02-140.69-68.82-41.51-13.21-138.03,5.62-180.86,14.32-42.53,8.68-218.67,30.94-300.42,38.27-52.63,4.46-114.13,8.31-155.64-4.89-23.07-7.41-40.09-19.98-45.77-40.66-15.91-57.97,33.48-85.34,79.07-94.29,45.59-8.95,218.06-50.21,332.26-54.2,114.04-4.13,183.87-39.94,183.87-39.94l-27.15-29.31s-13.58-8.55-137.71-40.17c-124.27-31.46-247.95-13.8-332.29-53.55-24.36-11.62-40.27-25.53-47.56-39.89-18.24-35.19,14.67-72.4,96.76-79.45,115.51-10.29,340.36,32.75,452.69,47.94,112.36,15.49,284.59,20.94,387.55-95.38,4.19-12.12-8.9-25.66-8.9-25.66-143.47-61.77-223.49-182.6-223.17-274.15-.05-2.31.04-4.8.13-7.28,4.75-92.09,25.37-131.93,152.62,9.18,115.96,128.81,211.35,114.72,276.82,143.76,82.78,74.83,213.44,196.62,283.97,336.22,0,0,237.94,21.33,423.44-24.63Z"/>
  <path class="cls-1" d="M1895.44,547.76c14.64,36.44,26.05,71.3,34.25,104.9-47.63-17.77-135.41-47.33-188.49-42.67-75.34,6.46-172.45,18.53-283.29,184.25,16.08-139.16-29.07-190.39-75.85-274.25-46.75-83.55-80.55-109.34-173.59-195.33-92.9-86.15-231.06-133.24-273.1-138.36-41.9-5.29-41.61-86.63-89.51-126.8-40.55-34.01-64.28-26.05-87.41,31.01-.05-2.31.04-4.8.13-7.28,4.75-92.09,25.37-131.93,152.62,9.18,115.96,128.81,211.35,114.72,276.82,143.76,82.78,74.83,213.44,196.62,283.97,336.22,0,0,237.94,21.33,423.44-24.63Z"/>
  <path class="cls-4" d="M1924.85,969.23c-36.42,116.98-100.93,179.99-100.93,179.99,0,0-258.27-75.04-396.34-62.93-100.39,62.76-291.58,109.07-426.52,89.99-134.96-19.39-18.02-87.31-108.7-185.25-23.21-24.86-45.2-44.73-65.93-60.69,10.26-16.98,16.47-30.82,16.49-39.32-.11-45.29-26.32-79.78-70.02-144.28,47.53,66.02,86.75,91.79,86.75,91.79l-7.62-23.45,46.35,43.7s71.78-25.93,95.33-14.7c23.58,11.53,39.67,55.73,35.27,81.31-4.4,25.59-19.6,33.88,4.32,70.43,23.9,36.24-5.42,102.05-5.42,102.05,0,0,91.68,72.34,225.22,12.08,133.54-60.26,196.49-160.4,196.49-160.4,0,0,74.7,83.11,200.68,111.17,102.02,22.74,186.81-8.2,274.57-91.5Z"/>
  <path class="cls-3" d="M967.43,956.78c62.25,52.2,68.96,125.2,22.16,199.65-12.73,11.78-26.47,20.72-40.72,27.54-28.82,13.35-59.23,17.41-85.69,17.1-29.86-.32-54.33-6.05-65.53-10.33-26.04-9.62-37.12-44.21-41.34-57.13-3.92-12.95-15.45-42.24-2.98-72.71,0,0,174.84-44.1,214.1-104.12Z"/>
  <path class="cls-5" d="M990.54,390.32s12.91,27.31-.04,47.15c-13.08,20.01-71.12,49.22-130.8,84.45-59.51,35.37-133.26,5.35-202.7-.3-69.61-5.8-44.99,21.11-124.93-17.79-79.94-38.9-72.98,10.42-101.85-13.79-28.7-24.07-96.33-12.57-126.12-3.16-29.79,9.42-53.21,27.86-103.94-14.69-44.72-37.51-120.43-19.42-146.63,45.02-18.24-35.19,14.67-72.4,96.76-79.45,115.51-10.29,340.36,32.75,452.69,47.94,112.36,15.49,284.59,20.94,387.55-95.38Z"/>
  <path class="cls-11" d="M598.25,680.13s54.95,67.68,6.64,52.75c-48.17-15.1-128.18,40.31-156.37,22.07-28.19-18.24-98.83-7.56-139.72,21.54-40.86,29.4-76.52,26.5-120.42,10.72-43.76-15.95-117.61,3.98-142.52,33.69-21.55,25.7-32.26,53.38,2.96,88.32-23.07-7.41-40.09-19.98-45.77-40.66-15.91-57.97,33.48-85.34,79.07-94.29,45.59-8.95,218.06-50.21,332.26-54.2,114.04-4.13,183.87-39.94,183.87-39.94Z"/>
  <path class="cls-7" d="M967.43,956.78c62.25,52.2,68.96,125.2,22.16,199.65-12.73,11.78-26.47,20.72-40.72,27.54,12.15-50.07,11.75-110.95-8.1-127.6-24.86-20.85-68.35,8.63-106.82,31.79-33.47,20.25-28.58,60.17,29.23,112.92-29.86-.32-54.33-6.05-65.53-10.33-26.04-9.62-37.12-44.21-41.34-57.13-3.92-12.95-15.45-42.24-2.98-72.71,0,0,174.84-44.1,214.1-104.12Z"/>
  <path class="cls-6" d="M1005.5,856.81c7.82,13.38,9.66,32.55,5.63,53.61-5.45,29.54-22.23,62.09-49.6,84.9-10.96,9-25.79,17.88-42.69,26.16-56.47,27.68-135.24,49.74-157.33,51.68-14.42,1.27-34.06-5.82-51.96-16-18.04-10.01-34.15-22.67-40.72-32.45-13.27-19.09-21.62-77.26-21.62-77.26,0,0,12.57-50.57,50.78-96.13,64.76-21.3,96.9,20.72,96.9,20.72,0,0,59.47-39.38,87.83-15.59,37.12-36.8,65.22-42.52,86-34.76,16.63,6.27,28.57,20.84,36.78,35.11Z"/>
  <path class="cls-8" d="M1005.5,856.81c7.82,13.38,9.66,32.55,5.63,53.61-5.45,29.54-22.23,62.09-49.6,84.9-10.96,9-25.79,17.88-42.69,26.16,13.02-43.66,14.62-99.45-14.09-123.52-35.54-29.81-72.67,36.83-112.91,18.72-40.38-17.95-55.48-13.84-82.78,13.29-25.18,24.94-41.91,43.87.49,127.19-18.04-10.01-34.15-22.67-40.72-32.45-13.27-19.09-21.62-77.26-21.62-77.26,0,0,12.57-50.57,50.78-96.13,64.76-21.3,96.9,20.72,96.9,20.72,0,0,59.47-39.38,87.83-15.59,37.12-36.8,65.22-42.52,86-34.76,16.63,6.27,28.57,20.84,36.78,35.11Z"/>
  <path class="cls-2" d="M1005.5,856.81c7.82,13.38,9.66,32.55,5.63,53.61-8.48-42.08-43.06-62.54-43.06-62.54,0,0,4.36-11.98.64-26.18,16.63,6.27,28.57,20.84,36.78,35.11Z"/>
  <path class="cls-10" d="M1030.92,714.07c-15.41-23.79-17.53-53.83-5.61-79.55,42.37,118.63,149.48,202.1,274.87,214.19-163.87,25.93-321.4-74.24-367.42-233.64,25.19,39.7,58.68,73.47,98.16,99Z"/>
  <path class="cls-9" d="M867.77,270.16c.13-5.62.92-11.16,1.44-16.8,1.22-5.46,2.31-11.01,3.79-16.46,3.11-10.87,7.51-21.44,13.36-31.27,5.99-9.71,12.97-18.98,21.74-26.43,8.67-7.41,18.53-13.92,29.69-16.32-9.13,6.48-16.79,14.11-23.73,22.22-6.78,8.26-12.94,16.92-18.35,26.12-5.7,9.04-10.07,18.85-14.88,28.57l-13.06,30.38Z"/>
  <path class="cls-9" d="M571.19,623.8c7.66-19.67,16.07-38.09,21.52-57.38,3-9.53,5.07-19.26,6.39-29.11,1.14-9.86,1.39-19.95-.79-30.22,6.45,8.64,8.63,19.82,9.16,30.53.62,10.86-1.36,21.62-4.33,31.89-3.03,10.3-7.48,20.03-12.81,29.17l-8.76,13.18c-3.49,4.01-6.66,8.19-10.38,11.94Z"/>
  <path class="cls-9" d="M411.67,577.11c3.17-16.98,6.87-32.67,8.64-48.69,1.8-16,2.25-31.81-.42-48.74,5.6,6.77,8.46,15.32,10.26,23.85,1.87,8.6,1.8,17.46.97,26.14-1.16,8.65-3.17,17.17-6.57,25.14-3.26,8-7.45,15.56-12.89,22.3Z"/>
  <path class="cls-9" d="M263.47,558.04c-3.5-14.33-2.62-28.88-.31-42.91,2.72-13.98,6.82-27.79,14.72-40.25.34,14.69-1.72,28.43-4.01,42.18-1.39,6.83-2.54,13.67-4.4,20.45-1.74,6.8-3.35,13.63-6,20.54Z"/>
  <path class="cls-9" d="M258.99,878.15c1.82-9.95,4.26-19.25,5.17-28.77,1.17-9.44,1.55-18.84,1.13-28.2-.63-18.79-4.71-37.22-11.29-56.08,7.21,7.14,12.21,16.2,15.93,25.66,3.83,9.47,5.8,19.7,6.23,29.96.79,20.5-5.14,41.36-17.18,57.42Z"/>
  <path class="cls-9" d="M473.93,847.94c-1.8-9.57-2.68-18.79-4.59-27.89-1.79-9.07-3.59-18.06-6.01-26.91-4.4-17.86-10.31-35.15-16.66-53.33,7.03,6.76,12.29,14.99,16.82,23.53,4.65,8.52,7.9,17.72,10.38,27.1,4.74,18.75,5.48,38.91.06,57.49Z"/>
  <path class="cls-9" d="M641.75,770.06c-4.01-6.42-6.96-12.92-10.28-19.23l-9.45-18.94c-6.07-12.73-12.36-25.13-18.13-38.93,6.38,4.13,11.45,9.64,16.09,15.4,4.73,5.74,8.49,12.14,11.81,18.75,6.31,13.32,10.54,27.92,9.95,42.96Z"/>
  <path class="cls-9" d="M742.87,1048.1c-13.8-9.79-23.55-25.08-28.33-41.45-2.32-8.24-3.73-16.76-3.43-25.3.18-8.48,1.3-17.03,4.72-24.87,2.11,16.68,4.6,32.1,9.15,47.13,2.05,7.55,4.78,14.88,7.73,22.24,2.84,7.46,6.74,14.43,10.15,22.25Z"/>
  <path class="cls-9" d="M967.43,956.78c-2.05-7.8-3.15-15.27-5.09-22.55-1.83-7.27-3.76-14.4-6.11-21.39-4.51-14.11-10.29-27.54-17.2-41.85,6.9,4.25,12.26,10.39,16.86,16.93,4.69,6.54,8.14,13.9,10.68,21.53,4.83,15.3,5.8,32.1.86,47.32Z"/>
  <path class="cls-9" d="M986.58,1123.67c-1.16-8.32-1.85-16.08-3.42-23.77-1.74-7.64-3.14-15.22-5.36-22.7-3.98-15.1-9.06-29.83-13.62-45.79,6.14,5.74,10.74,12.69,14.79,19.91,4.13,7.21,7.02,15.04,9.34,23.05,4.18,15.99,4.93,33.86-1.72,49.31Z"/>
  <path class="cls-9" d="M818.73,1178.85c-13.09-9.58-22.01-23.41-28.9-37.53-6.48-14.39-11.38-29.58-11.95-45.72,8.69,13.52,15.18,27.31,21.8,41.09,6.39,13.95,12.73,27.41,19.06,42.16Z"/>
  <path class="cls-9" d="M1433.39,1067.93l7.55-32.92c2.17-10.93,4.76-21.7,6.72-32.65,4.46-21.79,8.12-43.65,13.05-65.98,1.98,11.33,2.1,22.77,1.68,34.15-.33,11.41-1.97,22.72-4.05,33.93-4.57,22.28-12.07,44.43-24.94,63.45Z"/>
  <path class="cls-9" d="M1477.27,589.68c8.46,17.1,11.94,36.45,13.25,55.5,1.36,19.14,0,38.33-2.54,57.24-5.62,37.74-16.87,74.64-34.23,108.39,9.36-36.75,18.32-72.99,23.45-109.93,5.02-36.83,8.19-74.17.07-111.2Z"/>
</svg>